<?xml version="1.0" encoding="UTF-8" standalone="no"?>
<!DOCTYPE svg PUBLIC "-//W3C//DTD SVG 1.1//EN"
 "http://www.w3.org/Graphics/SVG/1.1/DTD/svg11.dtd">
<!-- Generated by graphviz version 2.26.3 (20100126.1600)
 -->
<!-- Title: snakemake_dag Pages: 1 -->
<svg width="476pt" height="416pt"
 viewBox="0.00 0.00 476.00 416.00" xmlns="http://www.w3.org/2000/svg" xmlns:xlink="http://www.w3.org/1999/xlink">
<g id="graph1" class="graph" transform="scale(1 1) rotate(0) translate(4 412)">
<title>snakemake_dag</title>
<polygon fill="white" stroke="white" points="-4,5 -4,-412 473,-412 473,5 -4,5"/>
<!-- 0 -->
<g id="node1" class="node"><title>0</title>
<polyline fill="none" stroke="#97d856" stroke-width="2" points="298,-36 268,-36 "/>
<path fill="none" stroke="#97d856" stroke-width="2" d="M268,-36C262,-36 256,-30 256,-24"/>
<polyline fill="none" stroke="#97d856" stroke-width="2" points="256,-24 256,-12 "/>
<path fill="none" stroke="#97d856" stroke-width="2" d="M256,-12C256,-6 262,-1.61846e-14 268,-1.46056e-14"/>
<polyline fill="none" stroke="#97d856" stroke-width="2" points="268,-1.46056e-14 298,-6.71068e-15 "/>
<path fill="none" stroke="#97d856" stroke-width="2" d="M298,-6.71068e-15C304,-5.1317e-15 310,-6 310,-12"/>
<polyline fill="none" stroke="#97d856" stroke-width="2" points="310,-12 310,-24 "/>
<path fill="none" stroke="#97d856" stroke-width="2" d="M310,-24C310,-30 304,-36 298,-36"/>
<text text-anchor="middle" x="283" y="-15.5" font-family="sans" font-size="10.00">all</text>
</g>
<!-- 1 -->
<g id="node2" class="node"><title>1</title>
<polyline fill="none" stroke="#56d8d8" stroke-width="2" points="228,-108 178,-108 "/>
<path fill="none" stroke="#56d8d8" stroke-width="2" d="M178,-108C172,-108 166,-102 166,-96"/>
<polyline fill="none" stroke="#56d8d8" stroke-width="2" points="166,-96 166,-84 "/>
<path fill="none" stroke="#56d8d8" stroke-width="2" d="M166,-84C166,-78 172,-72 178,-72"/>
<polyline fill="none" stroke="#56d8d8" stroke-width="2" points="178,-72 228,-72 "/>
<path fill="none" stroke="#56d8d8" stroke-width="2" d="M228,-72C234,-72 240,-78 240,-84"/>
<polyline fill="none" stroke="#56d8d8" stroke-width="2" points="240,-84 240,-96 "/>
<path fill="none" stroke="#56d8d8" stroke-width="2" d="M240,-96C240,-102 234,-108 228,-108"/>
<text text-anchor="middle" x="203" y="-87.5" font-family="sans" font-size="10.00">index_reads</text>
</g>
<!-- 1&#45;&gt;0 -->
<g id="edge2" class="edge"><title>1&#45;&gt;0</title>
<path fill="none" stroke="grey" stroke-width="2" d="M223.187,-71.8314C232.851,-63.1337 244.58,-52.5783 255.082,-43.1265"/>
<polygon fill="grey" stroke="grey" points="257.728,-45.454 262.819,-36.1628 253.045,-40.251 257.728,-45.454"/>
</g>
<!-- 2 -->
<g id="node3" class="node"><title>2</title>
<polyline fill="none" stroke="#d89556" stroke-width="2" points="247,-180 159,-180 "/>
<path fill="none" stroke="#d89556" stroke-width="2" d="M159,-180C153,-180 147,-174 147,-168"/>
<polyline fill="none" stroke="#d89556" stroke-width="2" points="147,-168 147,-156 "/>
<path fill="none" stroke="#d89556" stroke-width="2" d="M147,-156C147,-150 153,-144 159,-144"/>
<polyline fill="none" stroke="#d89556" stroke-width="2" points="159,-144 247,-144 "/>
<path fill="none" stroke="#d89556" stroke-width="2" d="M247,-144C253,-144 259,-150 259,-156"/>
<polyline fill="none" stroke="#d89556" stroke-width="2" points="259,-156 259,-168 "/>
<path fill="none" stroke="#d89556" stroke-width="2" d="M259,-168C259,-174 253,-180 247,-180"/>
<text text-anchor="middle" x="203" y="-159.5" font-family="sans" font-size="10.00">sort_mapped_reads</text>
</g>
<!-- 2&#45;&gt;1 -->
<g id="edge6" class="edge"><title>2&#45;&gt;1</title>
<path fill="none" stroke="grey" stroke-width="2" d="M203,-143.831C203,-136.131 203,-126.974 203,-118.417"/>
<polygon fill="grey" stroke="grey" points="206.5,-118.413 203,-108.413 199.5,-118.413 206.5,-118.413"/>
</g>
<!-- 3 -->
<g id="node4" class="node"><title>3</title>
<polyline fill="none" stroke="#59d856" stroke-width="2" points="231,-252 175,-252 "/>
<path fill="none" stroke="#59d856" stroke-width="2" d="M175,-252C169,-252 163,-246 163,-240"/>
<polyline fill="none" stroke="#59d856" stroke-width="2" points="163,-240 163,-228 "/>
<path fill="none" stroke="#59d856" stroke-width="2" d="M163,-228C163,-222 169,-216 175,-216"/>
<polyline fill="none" stroke="#59d856" stroke-width="2" points="175,-216 231,-216 "/>
<path fill="none" stroke="#59d856" stroke-width="2" d="M231,-216C237,-216 243,-222 243,-228"/>
<polyline fill="none" stroke="#59d856" stroke-width="2" points="243,-228 243,-240 "/>
<path fill="none" stroke="#59d856" stroke-width="2" d="M243,-240C243,-246 237,-252 231,-252"/>
<text text-anchor="middle" x="203" y="-231.5" font-family="sans" font-size="10.00">SAM_to_BAM</text>
</g>
<!-- 3&#45;&gt;2 -->
<g id="edge8" class="edge"><title>3&#45;&gt;2</title>
<path fill="none" stroke="grey" stroke-width="2" d="M203,-215.831C203,-208.131 203,-198.974 203,-190.417"/>
<polygon fill="grey" stroke="grey" points="206.5,-190.413 203,-180.413 199.5,-190.413 206.5,-190.413"/>
</g>
<!-- 4 -->
<g id="node5" class="node"><title>4</title>
<polyline fill="none" stroke="#d6d856" stroke-width="2" stroke-dasharray="1,5" points="226,-324 180,-324 "/>
<path fill="none" stroke="#d6d856" stroke-width="2" stroke-dasharray="1,5" d="M180,-324C174,-324 168,-318 168,-312"/>
<polyline fill="none" stroke="#d6d856" stroke-width="2" stroke-dasharray="1,5" points="168,-312 168,-300 "/>
<path fill="none" stroke="#d6d856" stroke-width="2" stroke-dasharray="1,5" d="M168,-300C168,-294 174,-288 180,-288"/>
<polyline fill="none" stroke="#d6d856" stroke-width="2" stroke-dasharray="1,5" points="180,-288 226,-288 "/>
<path fill="none" stroke="#d6d856" stroke-width="2" stroke-dasharray="1,5" d="M226,-288C232,-288 238,-294 238,-300"/>
<polyline fill="none" stroke="#d6d856" stroke-width="2" stroke-dasharray="1,5" points="238,-300 238,-312 "/>
<path fill="none" stroke="#d6d856" stroke-width="2" stroke-dasharray="1,5" d="M238,-312C238,-318 232,-324 226,-324"/>
<text text-anchor="middle" x="203" y="-303.5" font-family="sans" font-size="10.00">map_reads</text>
</g>
<!-- 4&#45;&gt;3 -->
<g id="edge10" class="edge"><title>4&#45;&gt;3</title>
<path fill="none" stroke="grey" stroke-width="2" d="M203,-287.831C203,-280.131 203,-270.974 203,-262.417"/>
<polygon fill="grey" stroke="grey" points="206.5,-262.413 203,-252.413 199.5,-262.413 206.5,-262.413"/>
</g>
<!-- 5 -->
<g id="node6" class="node"><title>5</title>
<polyline fill="none" stroke="#d85656" stroke-width="2" points="198,-402 12,-402 "/>
<path fill="none" stroke="#d85656" stroke-width="2" d="M12,-402C6,-402 7.10543e-14,-396 5.68434e-14,-390"/>
<polyline fill="none" stroke="#d85656" stroke-width="2" points="5.68434e-14,-390 2.84217e-14,-378 "/>
<path fill="none" stroke="#d85656" stroke-width="2" d="M2.84217e-14,-378C1.42109e-14,-372 6,-366 12,-366"/>
<polyline fill="none" stroke="#d85656" stroke-width="2" points="12,-366 198,-366 "/>
<path fill="none" stroke="#d85656" stroke-width="2" d="M198,-366C204,-366 210,-372 210,-378"/>
<polyline fill="none" stroke="#d85656" stroke-width="2" points="210,-378 210,-390 "/>
<path fill="none" stroke="#d85656" stroke-width="2" d="M210,-390C210,-396 204,-402 198,-402"/>
<text text-anchor="middle" x="105" y="-388" font-family="sans" font-size="10.00">trim_reads</text>
<text text-anchor="middle" x="105" y="-375" font-family="sans" font-size="10.00">reads: John2014_Sviridis_BS_ERR385864</text>
</g>
<!-- 5&#45;&gt;4 -->
<g id="edge12" class="edge"><title>5&#45;&gt;4</title>
<path fill="none" stroke="grey" stroke-width="2" d="M127.729,-365.909C140.87,-355.451 157.588,-342.144 171.93,-330.729"/>
<polygon fill="grey" stroke="grey" points="174.41,-333.229 180.054,-324.263 170.05,-327.752 174.41,-333.229"/>
</g>
<!-- 6 -->
<g id="node7" class="node"><title>6</title>
<polyline fill="none" stroke="#56d89a" stroke-width="2" points="362,-407.5 240,-407.5 "/>
<path fill="none" stroke="#56d89a" stroke-width="2" d="M240,-407.5C234,-407.5 228,-401.5 228,-395.5"/>
<polyline fill="none" stroke="#56d89a" stroke-width="2" points="228,-395.5 228,-372.5 "/>
<path fill="none" stroke="#56d89a" stroke-width="2" d="M228,-372.5C228,-366.5 234,-360.5 240,-360.5"/>
<polyline fill="none" stroke="#56d89a" stroke-width="2" points="240,-360.5 362,-360.5 "/>
<path fill="none" stroke="#56d89a" stroke-width="2" d="M362,-360.5C368,-360.5 374,-366.5 374,-372.5"/>
<polyline fill="none" stroke="#56d89a" stroke-width="2" points="374,-372.5 374,-395.5 "/>
<path fill="none" stroke="#56d89a" stroke-width="2" d="M374,-395.5C374,-401.5 368,-407.5 362,-407.5"/>
<text text-anchor="middle" x="301" y="-394.5" font-family="sans" font-size="10.00">index_genome</text>
<text text-anchor="middle" x="301" y="-381.5" font-family="sans" font-size="10.00">genome: Sitalica_312_v2.2</text>
<text text-anchor="middle" x="301" y="-368.5" font-family="sans" font-size="10.00">n: ...</text>
</g>
<!-- 6&#45;&gt;4 -->
<g id="edge14" class="edge"><title>6&#45;&gt;4</title>
<path fill="none" stroke="grey" stroke-width="2" d="M271.331,-360.386C259.43,-350.914 245.717,-339.999 233.714,-330.446"/>
<polygon fill="grey" stroke="grey" points="235.724,-327.572 225.72,-324.083 231.364,-333.049 235.724,-327.572"/>
</g>
<!-- 7 -->
<g id="node8" class="node"><title>7</title>
<polyline fill="none" stroke="#569ad8" stroke-width="2" points="456,-108 270,-108 "/>
<path fill="none" stroke="#569ad8" stroke-width="2" d="M270,-108C264,-108 258,-102 258,-96"/>
<polyline fill="none" stroke="#569ad8" stroke-width="2" points="258,-96 258,-84 "/>
<path fill="none" stroke="#569ad8" stroke-width="2" d="M258,-84C258,-78 264,-72 270,-72"/>
<polyline fill="none" stroke="#569ad8" stroke-width="2" points="270,-72 456,-72 "/>
<path fill="none" stroke="#569ad8" stroke-width="2" d="M456,-72C462,-72 468,-78 468,-84"/>
<polyline fill="none" stroke="#569ad8" stroke-width="2" points="468,-84 468,-96 "/>
<path fill="none" stroke="#569ad8" stroke-width="2" d="M468,-96C468,-102 462,-108 456,-108"/>
<text text-anchor="middle" x="363" y="-94" font-family="sans" font-size="10.00">read_quality_report</text>
<text text-anchor="middle" x="363" y="-81" font-family="sans" font-size="10.00">reads: John2014_Sviridis_BS_ERR385864</text>
</g>
<!-- 7&#45;&gt;0 -->
<g id="edge4" class="edge"><title>7&#45;&gt;0</title>
<path fill="none" stroke="grey" stroke-width="2" d="M342.813,-71.8314C333.149,-63.1337 321.42,-52.5783 310.918,-43.1265"/>
<polygon fill="grey" stroke="grey" points="312.955,-40.251 303.181,-36.1628 308.272,-45.454 312.955,-40.251"/>
</g>
</g>
</svg>
