<?xml version="1.0" encoding="UTF-8" standalone="no"?>
<!DOCTYPE svg PUBLIC "-//W3C//DTD SVG 1.1//EN"
 "http://www.w3.org/Graphics/SVG/1.1/DTD/svg11.dtd">
<!-- Generated by graphviz version 2.38.0 (20140413.2041)
 -->
<!-- Title: snakemake_dag Pages: 1 -->
<svg width="478pt" height="409pt"
 viewBox="0.00 0.00 478.00 409.00" xmlns="http://www.w3.org/2000/svg" xmlns:xlink="http://www.w3.org/1999/xlink">
<g id="graph0" class="graph" transform="scale(1 1) rotate(0) translate(4 405)">
<title>snakemake_dag</title>
<polygon fill="white" stroke="none" points="-4,4 -4,-405 474,-405 474,4 -4,4"/>
<!-- 0 -->
<g id="node1" class="node"><title>0</title>
<path fill="none" stroke="#97d856" stroke-width="2" d="M298.5,-36C298.5,-36 268.5,-36 268.5,-36 262.5,-36 256.5,-30 256.5,-24 256.5,-24 256.5,-12 256.5,-12 256.5,-6 262.5,-0 268.5,-0 268.5,-0 298.5,-0 298.5,-0 304.5,-0 310.5,-6 310.5,-12 310.5,-12 310.5,-24 310.5,-24 310.5,-30 304.5,-36 298.5,-36"/>
<text text-anchor="middle" x="283.5" y="-15.5" font-family="sans" font-size="10.00">all</text>
</g>
<!-- 1 -->
<g id="node2" class="node"><title>1</title>
<path fill="none" stroke="#56d8d8" stroke-width="2" d="M228.5,-108C228.5,-108 178.5,-108 178.5,-108 172.5,-108 166.5,-102 166.5,-96 166.5,-96 166.5,-84 166.5,-84 166.5,-78 172.5,-72 178.5,-72 178.5,-72 228.5,-72 228.5,-72 234.5,-72 240.5,-78 240.5,-84 240.5,-84 240.5,-96 240.5,-96 240.5,-102 234.5,-108 228.5,-108"/>
<text text-anchor="middle" x="203.5" y="-87.5" font-family="sans" font-size="10.00">index_reads</text>
</g>
<!-- 1&#45;&gt;0 -->
<g id="edge1" class="edge"><title>1&#45;&gt;0</title>
<path fill="none" stroke="grey" stroke-width="2" d="M223.275,-71.6966C233.254,-62.9655 245.511,-52.2405 256.357,-42.7503"/>
<polygon fill="grey" stroke="grey" stroke-width="2" points="258.731,-45.3234 263.952,-36.1043 254.122,-40.0554 258.731,-45.3234"/>
</g>
<!-- 2 -->
<g id="node3" class="node"><title>2</title>
<path fill="none" stroke="#59d856" stroke-width="2" d="M458,-108C458,-108 271,-108 271,-108 265,-108 259,-102 259,-96 259,-96 259,-84 259,-84 259,-78 265,-72 271,-72 271,-72 458,-72 458,-72 464,-72 470,-78 470,-84 470,-84 470,-96 470,-96 470,-102 464,-108 458,-108"/>
<text text-anchor="middle" x="364.5" y="-93" font-family="sans" font-size="10.00">read_quality_report</text>
<text text-anchor="middle" x="364.5" y="-82" font-family="sans" font-size="10.00">reads: John2014_Sviridis_BS_ERR385864</text>
</g>
<!-- 2&#45;&gt;0 -->
<g id="edge2" class="edge"><title>2&#45;&gt;0</title>
<path fill="none" stroke="grey" stroke-width="2" d="M344.478,-71.6966C334.374,-62.9655 321.964,-52.2405 310.982,-42.7503"/>
<polygon fill="grey" stroke="grey" stroke-width="2" points="313.147,-39.9948 303.292,-36.1043 308.57,-45.2912 313.147,-39.9948"/>
</g>
<!-- 3 -->
<g id="node4" class="node"><title>3</title>
<path fill="none" stroke="#d6d856" stroke-width="2" d="M248,-180C248,-180 159,-180 159,-180 153,-180 147,-174 147,-168 147,-168 147,-156 147,-156 147,-150 153,-144 159,-144 159,-144 248,-144 248,-144 254,-144 260,-150 260,-156 260,-156 260,-168 260,-168 260,-174 254,-180 248,-180"/>
<text text-anchor="middle" x="203.5" y="-159.5" font-family="sans" font-size="10.00">sort_mapped_reads</text>
</g>
<!-- 3&#45;&gt;1 -->
<g id="edge3" class="edge"><title>3&#45;&gt;1</title>
<path fill="none" stroke="grey" stroke-width="2" d="M203.5,-143.697C203.5,-135.983 203.5,-126.712 203.5,-118.112"/>
<polygon fill="grey" stroke="grey" stroke-width="2" points="207,-118.104 203.5,-108.104 200,-118.104 207,-118.104"/>
</g>
<!-- 4 -->
<g id="node5" class="node"><title>4</title>
<path fill="none" stroke="#56d89a" stroke-width="2" d="M231.5,-252C231.5,-252 175.5,-252 175.5,-252 169.5,-252 163.5,-246 163.5,-240 163.5,-240 163.5,-228 163.5,-228 163.5,-222 169.5,-216 175.5,-216 175.5,-216 231.5,-216 231.5,-216 237.5,-216 243.5,-222 243.5,-228 243.5,-228 243.5,-240 243.5,-240 243.5,-246 237.5,-252 231.5,-252"/>
<text text-anchor="middle" x="203.5" y="-231.5" font-family="sans" font-size="10.00">SAM_to_BAM</text>
</g>
<!-- 4&#45;&gt;3 -->
<g id="edge4" class="edge"><title>4&#45;&gt;3</title>
<path fill="none" stroke="grey" stroke-width="2" d="M203.5,-215.697C203.5,-207.983 203.5,-198.712 203.5,-190.112"/>
<polygon fill="grey" stroke="grey" stroke-width="2" points="207,-190.104 203.5,-180.104 200,-190.104 207,-190.104"/>
</g>
<!-- 5 -->
<g id="node6" class="node"><title>5</title>
<path fill="none" stroke="#569ad8" stroke-width="2" stroke-dasharray="1,5" d="M227,-324C227,-324 180,-324 180,-324 174,-324 168,-318 168,-312 168,-312 168,-300 168,-300 168,-294 174,-288 180,-288 180,-288 227,-288 227,-288 233,-288 239,-294 239,-300 239,-300 239,-312 239,-312 239,-318 233,-324 227,-324"/>
<text text-anchor="middle" x="203.5" y="-303.5" font-family="sans" font-size="10.00">map_reads</text>
</g>
<!-- 5&#45;&gt;4 -->
<g id="edge5" class="edge"><title>5&#45;&gt;4</title>
<path fill="none" stroke="grey" stroke-width="2" d="M203.5,-287.697C203.5,-279.983 203.5,-270.712 203.5,-262.112"/>
<polygon fill="grey" stroke="grey" stroke-width="2" points="207,-262.104 203.5,-252.104 200,-262.104 207,-262.104"/>
</g>
<!-- 6 -->
<g id="node7" class="node"><title>6</title>
<path fill="none" stroke="#d89556" stroke-width="2" d="M199,-398.5C199,-398.5 12,-398.5 12,-398.5 6,-398.5 0,-392.5 0,-386.5 0,-386.5 0,-374.5 0,-374.5 0,-368.5 6,-362.5 12,-362.5 12,-362.5 199,-362.5 199,-362.5 205,-362.5 211,-368.5 211,-374.5 211,-374.5 211,-386.5 211,-386.5 211,-392.5 205,-398.5 199,-398.5"/>
<text text-anchor="middle" x="105.5" y="-383.5" font-family="sans" font-size="10.00">trim_reads</text>
<text text-anchor="middle" x="105.5" y="-372.5" font-family="sans" font-size="10.00">reads: John2014_Sviridis_BS_ERR385864</text>
</g>
<!-- 6&#45;&gt;5 -->
<g id="edge6" class="edge"><title>6&#45;&gt;5</title>
<path fill="none" stroke="grey" stroke-width="2" d="M128.725,-362.319C141.662,-352.748 157.95,-340.698 172.019,-330.29"/>
<polygon fill="grey" stroke="grey" stroke-width="2" points="174.484,-332.819 180.442,-324.058 170.321,-327.192 174.484,-332.819"/>
</g>
<!-- 7 -->
<g id="node8" class="node"><title>7</title>
<path fill="none" stroke="#d85656" stroke-width="2" d="M363.5,-401C363.5,-401 241.5,-401 241.5,-401 235.5,-401 229.5,-395 229.5,-389 229.5,-389 229.5,-372 229.5,-372 229.5,-366 235.5,-360 241.5,-360 241.5,-360 363.5,-360 363.5,-360 369.5,-360 375.5,-366 375.5,-372 375.5,-372 375.5,-389 375.5,-389 375.5,-395 369.5,-401 363.5,-401"/>
<text text-anchor="middle" x="302.5" y="-389" font-family="sans" font-size="10.00">index_genome</text>
<text text-anchor="middle" x="302.5" y="-378" font-family="sans" font-size="10.00">genome: Sitalica_312_v2.2</text>
<text text-anchor="middle" x="302.5" y="-367" font-family="sans" font-size="10.00">n: ...</text>
</g>
<!-- 7&#45;&gt;5 -->
<g id="edge7" class="edge"><title>7&#45;&gt;5</title>
<path fill="none" stroke="grey" stroke-width="2" d="M275.709,-359.88C263.214,-350.73 248.254,-339.774 235.199,-330.214"/>
<polygon fill="grey" stroke="grey" stroke-width="2" points="237.077,-327.251 226.941,-324.166 232.941,-332.899 237.077,-327.251"/>
</g>
</g>
</svg>
